<?xml version="1.0" encoding="UTF-8"?>
<svg id="Layer_1" data-name="Layer 1" xmlns="http://www.w3.org/2000/svg" viewBox="0 0 739.76 1126.59">
  <defs>
    <style>
      .cls-1 {
        fill: #fff;
      }
    </style>
  </defs>
  <path d="M672.63,643v1.46c34.36,37.82,56.52,87.57,63.83,138.19,15.43,106.86-23.78,208.05-106.36,276.31-202.04,167.01-491.66,2.79-469.47-253.47,8.08-93.32,57.13-170.91,132.02-224.98.82-.85,1.94-1.41,1.8-2.84-.37-3.9-7.63-17.9-9.33-23.69-2.1-7.18-3.25-14.58-4.58-21.92-90.94,8.91-177.5-30.3-230.74-103.76C-91.83,232.88,89.89-52.27,327.83,8.27c189.2,48.14,249.4,293.06,120.81,433.23,2.58,31.58-9.19,80.7,17.97,103.99,20.17,17.3,47.29,12.13,72.02,16.98,40.85,8.01,79.5,33.56,109.49,61.47,24.12-17.88,41.93-41.71,39.37-73.33-3.32-40.97-40.68-55.94-77.22-54.27-5.78.26-6.47,3.85-10.18,6.61-13.77,10.25-28.32,17.85-45.93,19.07-10.89.76-23.02,1.01-24.54-12.54-1.28-11.45-1.43-44.72.09-55.91,1.82-13.37,15.81-12.34,26.28-11.46,18.49,1.55,32.98,10.35,48.36,19.64l33.64,1.36c42.95,5.15,80.83,41.42,83.67,85.33,2.47,38.14-17.17,74.38-49.03,94.56ZM245.42,36.28C110.04,46.41,18.4,175.73,36.76,307.34c27.59,197.68,272.15,258.86,394.82,105.1,123.55-154.87,19.64-391.55-186.16-376.16ZM616.62,639c-19.48-14.25-39.28-27.13-62.23-35.29-44.93-15.97-90.64-3.3-121.59-48.41-17.28-25.2-16.76-52.8-16.2-82.31-30.83,24.51-66.11,44.51-105,53.01,4.56,25.71,16.48,50.88,35.99,68.51,48.23,43.58,98.85,21.66,156.03,33.97,26.94,5.8,52.42,17.41,75.49,32.22l37.5-21.69ZM558.62,491.98c3.29-.09,17.81-7.03,17-10.48-4.73-3.82-10.91-5.83-17-5.52v16ZM366.62,643.99c-19.45-6.92-36.53-21.1-50.98-35.55l-1.07-.07c-59.97,40.5-106.87,102.7-118.67,175.39-42.3,260.53,264.48,412.82,441.7,219.7l22.02-30.47c-.64-.62-9.56,5.38-11.31,6.18-7.85,3.6-19.54,6.33-28.14,6.86-4.75.29-18.38-1.58-20.81-.85s-16.53,12.96-20.41,15.62c-160.66,110.37-364.12-33.02-319.64-220.64,11.75-49.57,46.14-93.79,87.42-122.58,5.52-3.85,13.75-7.44,18.65-11.3.81-.64,1.83.03,1.26-2.28ZM422.12,835.98h31.5v-26c-7.36.58-10.13.25-11-7.5-.58-5.17-1.39-22.52,4.71-24.29l10.28-.22,1.01-10.99c-14.68,4.56-13.59-22.9-5.75-26.24,3.36-1.43,32.92-1.3,38.29-.8,11.12,1.03,9.47,14.76,6.78,22.87-2.01,6.03-6.65,1.37-10.89,4.11l-1.39,10.47,2,1.18h26.02s1.94-13.58,1.94-13.58h-11.01c-.39-6.66-3.2-24.79,5.72-26.79,3.44-.77,18.31.44,19.19-.31,2.66-13.21,7.73-26.46,14.3-38.2,1.42-2.55,11.47-16.77,10.8-17.69-57-30.5-128.95-34.56-184.91.57-101,63.4-112.83,200.15-25.56,280.39l18.47,13.02c-18.29-41.49-10.75-107.68,31.7-131.8,8.45-4.8,18.08-7.46,27.81-8.19ZM703.61,868.98c12.43-74.27-10.29-150.03-58.99-206.57l-1.32-.31-39.68,20.37c21.88,22.87,39.43,52.08,50.01,82,2.74,7.76,5.8,26.4,8.55,31.45,1.25,2.29,4.27,3.15,5.97,5.03,18.32,20.22,26.62,38.43,33.46,64.54.36,1.38-.03,3.11,1.99,3.5ZM604.62,736.98c-6.67-12.34-13.95-25.46-25.39-33.95-5.46,6.02-9.82,13.86-12.63,21.43-1.06,2.85-4.98,14.87-4.98,17.02v23.5l-14.04.46-2.96,12.54h32l-.49-12.05-7.57-1.39c-2.45-4.71-5.74-27.56,2.56-27.56h33.5ZM605.62,778.98l17.93,2.62,2.06-1.14c-2.83-13.85-4.95-17.27-19.99-15.48v14ZM574.62,808.98h-30v143h30v-143ZM512.62,809.98h-28v142h28v-142ZM607.62,814.48v110.5l9.48-19.02c7.41-22.91,13.2-49.27,11.56-73.53-.81-11.95-1.45-15.96-13.84-18.15-1.7-.3-6.73-1.76-7.21.2ZM624.62,954.97c46.16-9.68,57.72-71.05,37.49-107.99-5.98,37.65-15.91,76.18-37.49,107.99ZM452.62,866.98h-19.5c-3.16,0-14.08,3.14-17.48,4.52-10.46,4.24-19.54,12.51-23.02,23.48h60v-28ZM452.62,924.98h-50.5c-.7,0-7.02,1.62-7.89,2.11-6.44,3.54-5.53,18-2.37,23.66,5.33,4.48,51.32,1.84,60.76,1.23v-27ZM538.12,984.98c-44.39,1.52-89.09-1.14-133.5,0l16.64,9.86c38.33,17.91,82.46,11.37,118.35-8.87v-1.47c-.16-1.41-1.25.48-1.5.49Z"/>
  <path class="cls-1" d="M245.42,36.28c205.8-15.39,309.71,221.29,186.16,376.16-122.66,153.76-367.23,92.58-394.82-105.1C18.4,175.73,110.04,46.41,245.42,36.28ZM257.42,140.28c-108.28,8.04-148.67,154.88-70.81,225.22,73.74,66.62,187.22,17.28,198.89-78.14,9.28-75.91-48.09-153.01-128.08-147.08Z"/>
  <path class="cls-1" d="M366.62,643.99c.57,2.3-.45,1.64-1.26,2.28-4.9,3.86-13.13,7.45-18.65,11.3-41.28,28.79-75.67,73.02-87.42,122.58-44.48,187.62,158.98,331.01,319.64,220.64,3.88-2.67,17.95-14.89,20.41-15.62s16.07,1.14,20.81.85c8.61-.52,20.29-3.26,28.14-6.86,1.75-.8,10.67-6.8,11.31-6.18l-22.02,30.47c-177.22,193.12-484,40.83-441.7-219.7,11.8-72.69,58.7-134.89,118.67-175.39l1.07.07c14.45,14.45,31.53,28.63,50.98,35.55Z"/>
  <path class="cls-1" d="M422.12,835.98c-9.73.73-19.35,3.39-27.81,8.19-42.45,24.12-49.99,90.31-31.7,131.8l-18.47-13.02c-87.28-80.24-75.44-216.99,25.56-280.39,55.97-35.13,127.92-31.07,184.91-.57.67.91-9.37,15.14-10.8,17.69-6.57,11.74-11.64,24.99-14.3,38.2-.88.75-15.75-.46-19.19.31-8.92,2-6.11,20.13-5.72,26.79h11.01s-1.94,13.58-1.94,13.58h-26.02s-2-1.17-2-1.17l1.39-10.47c4.24-2.74,8.88,1.92,10.89-4.11,2.7-8.11,4.35-21.84-6.78-22.87-5.38-.5-34.94-.63-38.29.8-7.84,3.34-8.92,30.8,5.75,26.24l-1.01,10.99-10.28.22c-6.1,1.77-5.29,19.12-4.71,24.29.87,7.75,3.64,8.08,11,7.5v26h-31.5Z"/>
  <path class="cls-1" d="M616.62,639l-37.5,21.69c-23.07-14.8-48.55-26.41-75.49-32.22-57.18-12.31-107.79,9.61-156.03-33.97-19.51-17.63-31.43-42.8-35.99-68.51,38.89-8.49,74.16-28.49,105-53.01-.57,29.52-1.09,57.12,16.2,82.31,30.94,45.11,76.65,32.44,121.59,48.41,22.95,8.16,42.75,21.03,62.23,35.29Z"/>
  <path class="cls-1" d="M703.61,868.98c-2.02-.39-1.63-2.12-1.99-3.5-6.84-26.1-15.14-44.32-33.46-64.54-1.7-1.88-4.73-2.74-5.97-5.03-2.75-5.05-5.8-23.69-8.55-31.45-10.58-29.92-28.13-59.13-50.01-82l39.68-20.37,1.32.31c48.7,56.54,71.41,132.3,58.99,206.57Z"/>
  <rect class="cls-1" x="544.62" y="808.98" width="30" height="143"/>
  <rect class="cls-1" x="484.62" y="809.98" width="28" height="142"/>
  <path class="cls-1" d="M538.12,984.98c.25,0,1.34-1.9,1.51-.49v1.47c-35.9,20.25-80.03,26.78-118.36,8.87l-16.64-9.86c44.41-1.14,89.11,1.52,133.5,0Z"/>
  <path class="cls-1" d="M607.62,814.48c.48-1.96,5.51-.5,7.21-.2,12.39,2.2,13.04,6.2,13.84,18.15,1.64,24.27-4.15,50.62-11.56,73.53l-9.48,19.02v-110.5Z"/>
  <path class="cls-1" d="M452.62,924.98v27c-9.44.6-55.43,3.24-60.76-1.23-3.16-5.66-4.07-20.12,2.37-23.66.88-.48,7.19-2.11,7.89-2.11h50.5Z"/>
  <path class="cls-1" d="M624.62,954.97c21.59-31.81,31.51-70.34,37.49-107.99,20.22,36.93,8.66,98.3-37.49,107.99Z"/>
  <path class="cls-1" d="M604.62,736.98h-33.5c-8.31,0-5.02,22.85-2.56,27.56l7.57,1.39.49,12.05h-32l2.96-12.54,14.04-.46v-23.5c0-2.15,3.92-14.17,4.98-17.02,2.81-7.58,7.18-15.41,12.63-21.43,11.44,8.5,18.72,21.61,25.39,33.95Z"/>
  <path class="cls-1" d="M452.62,866.98v28h-60c3.48-10.97,12.56-19.24,23.02-23.48,3.4-1.38,14.32-4.52,17.48-4.52h19.5Z"/>
  <path class="cls-1" d="M605.62,778.98v-14c15.05-1.79,17.16,1.63,19.99,15.48l-2.06,1.14-17.93-2.62Z"/>
  <path class="cls-1" d="M558.62,491.98v-16c6.1-.3,12.28,1.7,17,5.52.81,3.45-13.72,10.39-17,10.48Z"/>
  <path d="M257.42,140.28c79.99-5.94,137.36,71.17,128.08,147.08-11.67,95.42-125.15,144.76-198.89,78.14-77.86-70.34-37.47-217.18,70.81-225.22ZM258.42,176.28c-75.09,6.3-102.52,103.51-55.31,156.71,45.16,50.9,123.44,29.82,144.55-32.48,20.46-60.4-22.83-129.8-89.24-124.24Z"/>
  <path class="cls-1" d="M258.42,176.28c66.41-5.57,109.7,63.84,89.24,124.24-21.11,62.3-99.39,83.37-144.55,32.48s-19.78-150.42,55.31-156.71Z"/>
</svg>